# xmcd CD database file
#
# Track frame offsets:
#	150
#	16371
#	28062
#	38992
#	49861
#	77480
#	101021
#	117716
#	135544
#	150052
#
# Disc length: 2165 seconds
#
# Revision: 0
# Processed by: cddbd v1.5.2PL0 Copyright (c) Steve Scherf et al.
# Submitted via: CDex 1.82
#
DISCID=7608730a
DTITLE=Terryman - Terryman's Fear Of Gummybears
DYEAR=2009
DGENRE=Blues
TTITLE0=Do Me
TTITLE1=Bad Is Bad
TTITLE2=Gonna Lose
TTITLE3=Hound Dog
TTITLE4=Barroom
TTITLE5=HC Man
TTITLE6=Angels
TTITLE7=Fire
TTITLE8=Fear City
TTITLE9=Leavin' Town
EXTD=YEAR: 2009
EXTT0=
EXTT1=
EXTT2=
EXTT3=
EXTT4=
EXTT5=
EXTT6=
EXTT7=
EXTT8=
EXTT9=
PLAYORDER=
